<?xml version="1.0" encoding="UTF-8"?>
<!DOCTYPE svg
PUBLIC "-//W3C//DTD SVG 1.1//EN"
       "http://www.w3.org/Graphics/SVG/1.1/DTD/svg11.dtd">
<svg viewBox="56 9 1420 921" width="1364px" height="912px" xmlns="http://www.w3.org/2000/svg" version="1.1">
   <line x1="402" y1="721" x2="412" y2="721" style="stroke:#333;stroke-width:1;"/>
   <line x1="784" y1="57" x2="794" y2="57" style="stroke:#333;stroke-width:1;"/>
   <line x1="412" y1="721" x2="784" y2="57" style="stroke:#333;stroke-width:1;"/>
   <line x1="409.5" y1="721" x2="405.96446609407" y2="724.53553390593" style="stroke:#333;stroke-width:2;"/>
   <line x1="409.5" y1="721" x2="405.96446609407" y2="717.46446609407" style="stroke:#333;stroke-width:2;"/>
   <line x1="789" y1="57" x2="785.46446609407" y2="60.535533905933" style="stroke:#333;stroke-width:2;"/>
   <line x1="789" y1="57" x2="785.46446609407" y2="53.464466094067" style="stroke:#333;stroke-width:2;"/>
   <line x1="452" y1="194" x2="442" y2="194" style="stroke:#c00;stroke-width:1;"/>
   <line x1="224" y1="63" x2="214" y2="63" style="stroke:#c00;stroke-width:1;"/>
   <line x1="442" y1="194" x2="224" y2="63" style="stroke:#c00;stroke-width:1;"/>
   <line x1="444.5" y1="194" x2="448.03553390593" y2="197.53553390593" style="stroke:#c00;stroke-width:2;"/>
   <line x1="444.5" y1="194" x2="448.03553390593" y2="190.46446609407" style="stroke:#c00;stroke-width:2;"/>
   <line x1="219" y1="63" x2="222.53553390593" y2="66.535533905933" style="stroke:#c00;stroke-width:2;"/>
   <line x1="219" y1="63" x2="222.53553390593" y2="59.464466094067" style="stroke:#c00;stroke-width:2;"/>
   <line x1="569" y1="174" x2="579" y2="174" style="stroke:#c00;stroke-width:1;"/>
   <line x1="784" y1="57" x2="794" y2="57" style="stroke:#c00;stroke-width:1;"/>
   <line x1="579" y1="174" x2="784" y2="57" style="stroke:#c00;stroke-width:1;"/>
   <line x1="576.5" y1="174" x2="572.96446609407" y2="177.53553390593" style="stroke:#c00;stroke-width:2;"/>
   <line x1="576.5" y1="174" x2="572.96446609407" y2="170.46446609407" style="stroke:#c00;stroke-width:2;"/>
   <line x1="789" y1="57" x2="785.46446609407" y2="60.535533905933" style="stroke:#c00;stroke-width:2;"/>
   <line x1="789" y1="57" x2="785.46446609407" y2="53.464466094067" style="stroke:#c00;stroke-width:2;"/>
   <line x1="74" y1="808" x2="64" y2="808" style="stroke:#b0b;stroke-width:1;"/>
   <line x1="61" y1="290" x2="71" y2="290" style="stroke:#b0b;stroke-width:1;"/>
   <line x1="64" y1="808" x2="61" y2="290" style="stroke:#b0b;stroke-width:1;"/>
   <line x1="66.5" y1="808" x2="70.035533905933" y2="811.53553390593" style="stroke:#b0b;stroke-width:2;"/>
   <line x1="66.5" y1="808" x2="70.035533905933" y2="804.46446609407" style="stroke:#b0b;stroke-width:2;"/>
   <line x1="66" y1="290" x2="62.464466094067" y2="293.53553390593" style="stroke:#b0b;stroke-width:2;"/>
   <line x1="66" y1="290" x2="62.464466094067" y2="286.46446609407" style="stroke:#b0b;stroke-width:2;"/>
   <line x1="1211" y1="579" x2="1201" y2="579" style="stroke:#0b0;stroke-width:1;"/>
   <line x1="927" y1="575" x2="917" y2="575" style="stroke:#0b0;stroke-width:1;"/>
   <line x1="1201" y1="579" x2="927" y2="575" style="stroke:#0b0;stroke-width:1;"/>
   <line x1="1203.5" y1="579" x2="1207.0355339059" y2="582.53553390593" style="stroke:#0b0;stroke-width:2;"/>
   <line x1="1203.5" y1="579" x2="1207.0355339059" y2="575.46446609407" style="stroke:#0b0;stroke-width:2;"/>
   <line x1="922" y1="575" x2="925.53553390593" y2="578.53553390593" style="stroke:#0b0;stroke-width:2;"/>
   <line x1="922" y1="575" x2="925.53553390593" y2="571.46446609407" style="stroke:#0b0;stroke-width:2;"/>
   <line x1="929" y1="348" x2="939" y2="348" style="stroke:#c00;stroke-width:1;"/>
   <line x1="927" y1="575" x2="917" y2="575" style="stroke:#c00;stroke-width:1;"/>
   <line x1="939" y1="348" x2="927" y2="575" style="stroke:#c00;stroke-width:1;"/>
   <line x1="936.5" y1="348" x2="932.96446609407" y2="351.53553390593" style="stroke:#c00;stroke-width:2;"/>
   <line x1="936.5" y1="348" x2="932.96446609407" y2="344.46446609407" style="stroke:#c00;stroke-width:2;"/>
   <line x1="922" y1="575" x2="925.53553390593" y2="578.53553390593" style="stroke:#c00;stroke-width:2;"/>
   <line x1="922" y1="575" x2="925.53553390593" y2="571.46446609407" style="stroke:#c00;stroke-width:2;"/>
   <line x1="788" y1="635" x2="778" y2="635" style="stroke:#b0b;stroke-width:1;"/>
   <line x1="412" y1="581" x2="402" y2="581" style="stroke:#b0b;stroke-width:1;"/>
   <line x1="778" y1="635" x2="412" y2="581" style="stroke:#b0b;stroke-width:1;"/>
   <line x1="780.5" y1="635" x2="784.03553390593" y2="638.53553390593" style="stroke:#b0b;stroke-width:2;"/>
   <line x1="780.5" y1="635" x2="784.03553390593" y2="631.46446609407" style="stroke:#b0b;stroke-width:2;"/>
   <line x1="407" y1="581" x2="410.53553390593" y2="584.53553390593" style="stroke:#b0b;stroke-width:2;"/>
   <line x1="407" y1="581" x2="410.53553390593" y2="577.46446609407" style="stroke:#b0b;stroke-width:2;"/>
   <line x1="917" y1="655" x2="927" y2="655" style="stroke:#b0b;stroke-width:1;"/>
   <line x1="1206" y1="856" x2="1216" y2="856" style="stroke:#b0b;stroke-width:1;"/>
   <line x1="927" y1="655" x2="1206" y2="856" style="stroke:#b0b;stroke-width:1;"/>
   <line x1="924.5" y1="655" x2="920.96446609407" y2="658.53553390593" style="stroke:#b0b;stroke-width:2;"/>
   <line x1="924.5" y1="655" x2="920.96446609407" y2="651.46446609407" style="stroke:#b0b;stroke-width:2;"/>
   <line x1="1211" y1="856" x2="1207.4644660941" y2="859.53553390593" style="stroke:#b0b;stroke-width:2;"/>
   <line x1="1211" y1="856" x2="1207.4644660941" y2="852.46446609407" style="stroke:#b0b;stroke-width:2;"/>
   <rect width="115" height="20" x="1216" y="826" style="fill:#007;stroke:black;"/>
   <text width="115" height="20" x="1221" y="840" style="fill:#fff;" font-family="Arial" font-size="16px"> tbl_accessories</text>
   <rect width="115" height="20" x="1216" y="846" style="fill:#aea;stroke:black;"/>
   <text width="115" height="20" x="1221" y="860" style="fill:black;" font-family="Arial" font-size="16px">accessories_ID</text>
   <rect width="115" height="20" x="1216" y="866" style="fill:none;stroke:black;"/>
   <text width="115" height="20" x="1221" y="880" style="fill:black;" font-family="Arial" font-size="16px">type</text>
   <rect width="115" height="20" x="1216" y="886" style="fill:none;stroke:black;"/>
   <text width="115" height="20" x="1221" y="900" style="fill:black;" font-family="Arial" font-size="16px">amount</text>
   <rect width="103" height="20" x="299" y="551" style="fill:#007;stroke:black;"/>
   <text width="103" height="20" x="304" y="565" style="fill:#fff;" font-family="Arial" font-size="16px"> tbl_cars</text>
   <rect width="103" height="20" x="299" y="571" style="fill:#aea;stroke:black;"/>
   <text width="103" height="20" x="304" y="585" style="fill:black;" font-family="Arial" font-size="16px">car_id</text>
   <rect width="103" height="20" x="299" y="591" style="fill:none;stroke:black;"/>
   <text width="103" height="20" x="304" y="605" style="fill:black;" font-family="Arial" font-size="16px">brand</text>
   <rect width="103" height="20" x="299" y="611" style="fill:none;stroke:black;"/>
   <text width="103" height="20" x="304" y="625" style="fill:black;" font-family="Arial" font-size="16px">model</text>
   <rect width="103" height="20" x="299" y="631" style="fill:none;stroke:black;"/>
   <text width="103" height="20" x="304" y="645" style="fill:black;" font-family="Arial" font-size="16px">year</text>
   <rect width="103" height="20" x="299" y="651" style="fill:none;stroke:black;"/>
   <text width="103" height="20" x="304" y="665" style="fill:black;" font-family="Arial" font-size="16px">color</text>
   <rect width="103" height="20" x="299" y="671" style="fill:none;stroke:black;"/>
   <text width="103" height="20" x="304" y="685" style="fill:black;" font-family="Arial" font-size="16px">capacity</text>
   <rect width="103" height="20" x="299" y="691" style="fill:none;stroke:black;"/>
   <text width="103" height="20" x="304" y="705" style="fill:black;" font-family="Arial" font-size="16px">type</text>
   <rect width="103" height="20" x="299" y="711" style="fill:none;stroke:black;"/>
   <text width="103" height="20" x="304" y="725" style="fill:black;" font-family="Arial" font-size="16px">fk_location_ID</text>
   <rect width="133" height="20" x="71" y="260" style="fill:#007;stroke:black;"/>
   <text width="133" height="20" x="76" y="274" style="fill:#fff;" font-family="Arial" font-size="16px"> tbl_customers</text>
   <rect width="133" height="20" x="71" y="280" style="fill:#aea;stroke:black;"/>
   <text width="133" height="20" x="76" y="294" style="fill:black;" font-family="Arial" font-size="16px">customer_id</text>
   <rect width="133" height="20" x="71" y="300" style="fill:none;stroke:black;"/>
   <text width="133" height="20" x="76" y="314" style="fill:black;" font-family="Arial" font-size="16px">first_name</text>
   <rect width="133" height="20" x="71" y="320" style="fill:none;stroke:black;"/>
   <text width="133" height="20" x="76" y="334" style="fill:black;" font-family="Arial" font-size="16px">last_name</text>
   <rect width="133" height="20" x="71" y="340" style="fill:none;stroke:black;"/>
   <text width="133" height="20" x="76" y="354" style="fill:black;" font-family="Arial" font-size="16px">gender</text>
   <rect width="133" height="20" x="71" y="360" style="fill:none;stroke:black;"/>
   <text width="133" height="20" x="76" y="374" style="fill:black;" font-family="Arial" font-size="16px">Age</text>
   <rect width="133" height="20" x="71" y="380" style="fill:none;stroke:black;"/>
   <text width="133" height="20" x="76" y="394" style="fill:black;" font-family="Arial" font-size="16px">license_nummber</text>
   <rect width="133" height="20" x="71" y="400" style="fill:none;stroke:black;"/>
   <text width="133" height="20" x="76" y="414" style="fill:black;" font-family="Arial" font-size="16px">phone</text>
   <rect width="133" height="20" x="71" y="420" style="fill:none;stroke:black;"/>
   <text width="133" height="20" x="76" y="434" style="fill:black;" font-family="Arial" font-size="16px">Address</text>
   <rect width="133" height="20" x="71" y="440" style="fill:none;stroke:black;"/>
   <text width="133" height="20" x="76" y="454" style="fill:black;" font-family="Arial" font-size="16px">city</text>
   <rect width="133" height="20" x="71" y="460" style="fill:none;stroke:black;"/>
   <text width="133" height="20" x="76" y="474" style="fill:black;" font-family="Arial" font-size="16px">zip_code</text>
   <rect width="117" height="20" x="452" y="24" style="fill:#007;stroke:black;"/>
   <text width="117" height="20" x="457" y="38" style="fill:#fff;" font-family="Arial" font-size="16px"> tbl_deal</text>
   <rect width="117" height="20" x="452" y="44" style="fill:#aea;stroke:black;"/>
   <text width="117" height="20" x="457" y="58" style="fill:black;" font-family="Arial" font-size="16px">deal_ID</text>
   <rect width="117" height="20" x="452" y="64" style="fill:none;stroke:black;"/>
   <text width="117" height="20" x="457" y="78" style="fill:black;" font-family="Arial" font-size="16px">car_brand</text>
   <rect width="117" height="20" x="452" y="84" style="fill:none;stroke:black;"/>
   <text width="117" height="20" x="457" y="98" style="fill:black;" font-family="Arial" font-size="16px">car_model</text>
   <rect width="117" height="20" x="452" y="104" style="fill:none;stroke:black;"/>
   <text width="117" height="20" x="457" y="118" style="fill:black;" font-family="Arial" font-size="16px">number_of_cars</text>
   <rect width="117" height="20" x="452" y="124" style="fill:none;stroke:black;"/>
   <text width="117" height="20" x="457" y="138" style="fill:black;" font-family="Arial" font-size="16px">price_per_car</text>
   <rect width="117" height="20" x="452" y="144" style="fill:none;stroke:black;"/>
   <text width="117" height="20" x="457" y="158" style="fill:black;" font-family="Arial" font-size="16px">date</text>
   <rect width="117" height="20" x="452" y="164" style="fill:none;stroke:black;"/>
   <text width="117" height="20" x="457" y="178" style="fill:black;" font-family="Arial" font-size="16px">fk_location_ID</text>
   <rect width="117" height="20" x="452" y="184" style="fill:none;stroke:black;"/>
   <text width="117" height="20" x="457" y="198" style="fill:black;" font-family="Arial" font-size="16px">fk_supplier_ID</text>
   <rect width="110" height="20" x="74" y="738" style="fill:#007;stroke:black;"/>
   <text width="110" height="20" x="79" y="752" style="fill:#fff;" font-family="Arial" font-size="16px"> tbl_feedback</text>
   <rect width="110" height="20" x="74" y="758" style="fill:#aea;stroke:black;"/>
   <text width="110" height="20" x="79" y="772" style="fill:black;" font-family="Arial" font-size="16px">feedback_id</text>
   <rect width="110" height="20" x="74" y="778" style="fill:none;stroke:black;"/>
   <text width="110" height="20" x="79" y="792" style="fill:black;" font-family="Arial" font-size="16px">feedback</text>
   <rect width="110" height="20" x="74" y="798" style="fill:none;stroke:black;"/>
   <text width="110" height="20" x="79" y="812" style="fill:black;" font-family="Arial" font-size="16px">fk_customer_id</text>
   <rect width="127" height="20" x="1211" y="509" style="fill:#007;stroke:black;"/>
   <text width="127" height="20" x="1216" y="523" style="fill:#fff;" font-family="Arial" font-size="16px"> tbl_insurance</text>
   <rect width="127" height="20" x="1211" y="529" style="fill:#aea;stroke:black;"/>
   <text width="127" height="20" x="1216" y="543" style="fill:black;" font-family="Arial" font-size="16px">insurance_id</text>
   <rect width="127" height="20" x="1211" y="549" style="fill:none;stroke:black;"/>
   <text width="127" height="20" x="1216" y="563" style="fill:black;" font-family="Arial" font-size="16px">type</text>
   <rect width="127" height="20" x="1211" y="569" style="fill:none;stroke:black;"/>
   <text width="127" height="20" x="1216" y="583" style="fill:black;" font-family="Arial" font-size="16px">fk_reservation_ID</text>
   <rect width="83" height="20" x="794" y="27" style="fill:#007;stroke:black;"/>
   <text width="83" height="20" x="799" y="41" style="fill:#fff;" font-family="Arial" font-size="16px"> tbl_location</text>
   <rect width="83" height="20" x="794" y="47" style="fill:#aea;stroke:black;"/>
   <text width="83" height="20" x="799" y="61" style="fill:black;" font-family="Arial" font-size="16px">location_id</text>
   <rect width="83" height="20" x="794" y="67" style="fill:none;stroke:black;"/>
   <text width="83" height="20" x="799" y="81" style="fill:black;" font-family="Arial" font-size="16px">address</text>
   <rect width="83" height="20" x="794" y="87" style="fill:none;stroke:black;"/>
   <text width="83" height="20" x="799" y="101" style="fill:black;" font-family="Arial" font-size="16px">city</text>
   <rect width="83" height="20" x="794" y="107" style="fill:none;stroke:black;"/>
   <text width="83" height="20" x="799" y="121" style="fill:black;" font-family="Arial" font-size="16px">ZIP_Code</text>
   <rect width="83" height="20" x="794" y="127" style="fill:none;stroke:black;"/>
   <text width="83" height="20" x="799" y="141" style="fill:black;" font-family="Arial" font-size="16px">phone</text>
   <rect width="86" height="20" x="1319" y="68" style="fill:#007;stroke:black;"/>
   <text width="86" height="20" x="1324" y="82" style="fill:#fff;" font-family="Arial" font-size="16px"> tbl_login</text>
   <rect width="86" height="20" x="1319" y="88" style="fill:#aea;stroke:black;"/>
   <text width="86" height="20" x="1324" y="102" style="fill:black;" font-family="Arial" font-size="16px">login_id</text>
   <rect width="86" height="20" x="1319" y="108" style="fill:none;stroke:black;"/>
   <text width="86" height="20" x="1324" y="122" style="fill:black;" font-family="Arial" font-size="16px">user_name</text>
   <rect width="86" height="20" x="1319" y="128" style="fill:none;stroke:black;"/>
   <text width="86" height="20" x="1324" y="142" style="fill:black;" font-family="Arial" font-size="16px">Password</text>
   <rect width="127" height="20" x="802" y="218" style="fill:#007;stroke:black;"/>
   <text width="127" height="20" x="807" y="232" style="fill:#fff;" font-family="Arial" font-size="16px"> tbl_payment</text>
   <rect width="127" height="20" x="802" y="238" style="fill:#aea;stroke:black;"/>
   <text width="127" height="20" x="807" y="252" style="fill:black;" font-family="Arial" font-size="16px">Payment_ID</text>
   <rect width="127" height="20" x="802" y="258" style="fill:none;stroke:black;"/>
   <text width="127" height="20" x="807" y="272" style="fill:black;" font-family="Arial" font-size="16px">pay_cashe</text>
   <rect width="127" height="20" x="802" y="278" style="fill:none;stroke:black;"/>
   <text width="127" height="20" x="807" y="292" style="fill:black;" font-family="Arial" font-size="16px">card_holder</text>
   <rect width="127" height="20" x="802" y="298" style="fill:none;stroke:black;"/>
   <text width="127" height="20" x="807" y="312" style="fill:black;" font-family="Arial" font-size="16px">card_number</text>
   <rect width="127" height="20" x="802" y="318" style="fill:none;stroke:black;"/>
   <text width="127" height="20" x="807" y="332" style="fill:black;" font-family="Arial" font-size="16px">expire_date</text>
   <rect width="127" height="20" x="802" y="338" style="fill:none;stroke:black;"/>
   <text width="127" height="20" x="807" y="352" style="fill:black;" font-family="Arial" font-size="16px">fk_reservation_ID</text>
   <rect width="129" height="20" x="788" y="545" style="fill:#007;stroke:black;"/>
   <text width="129" height="20" x="793" y="559" style="fill:#fff;" font-family="Arial" font-size="16px"> tbl_reservation</text>
   <rect width="129" height="20" x="788" y="565" style="fill:#aea;stroke:black;"/>
   <text width="129" height="20" x="793" y="579" style="fill:black;" font-family="Arial" font-size="16px">reservation_id</text>
   <rect width="129" height="20" x="788" y="585" style="fill:none;stroke:black;"/>
   <text width="129" height="20" x="793" y="599" style="fill:black;" font-family="Arial" font-size="16px">start_date</text>
   <rect width="129" height="20" x="788" y="605" style="fill:none;stroke:black;"/>
   <text width="129" height="20" x="793" y="619" style="fill:black;" font-family="Arial" font-size="16px">return_date</text>
   <rect width="129" height="20" x="788" y="625" style="fill:none;stroke:black;"/>
   <text width="129" height="20" x="793" y="639" style="fill:black;" font-family="Arial" font-size="16px">fk_car_ID</text>
   <rect width="129" height="20" x="788" y="645" style="fill:none;stroke:black;"/>
   <text width="129" height="20" x="793" y="659" style="fill:black;" font-family="Arial" font-size="16px">fk_accessories_id</text>
   <rect width="128" height="20" x="86" y="33" style="fill:#007;stroke:black;"/>
   <text width="128" height="20" x="91" y="47" style="fill:#fff;" font-family="Arial" font-size="16px"> tbl_suppliers</text>
   <rect width="128" height="20" x="86" y="53" style="fill:#aea;stroke:black;"/>
   <text width="128" height="20" x="91" y="67" style="fill:black;" font-family="Arial" font-size="16px">supplier_id</text>
   <rect width="128" height="20" x="86" y="73" style="fill:none;stroke:black;"/>
   <text width="128" height="20" x="91" y="87" style="fill:black;" font-family="Arial" font-size="16px">supplier_name</text>
   <rect width="128" height="20" x="86" y="93" style="fill:none;stroke:black;"/>
   <text width="128" height="20" x="91" y="107" style="fill:black;" font-family="Arial" font-size="16px">supplier_address</text>
</svg>
